<?xml version="1.0" encoding="utf-8"?>
<!-- Generator: Adobe Illustrator 23.0.3, SVG Export Plug-In . SVG Version: 6.00 Build 0)  -->
<svg version="1.1" id="Layer_1" xmlns="http://www.w3.org/2000/svg" xmlns:xlink="http://www.w3.org/1999/xlink" x="0px" y="0px"
	 viewBox="0 0 2000 2000" style="enable-background:new 0 0 2000 2000;" xml:space="preserve">
<style type="text/css">
	.st0{fill-rule:evenodd;clip-rule:evenodd;fill:#189CD8;}
	.st1{fill-rule:evenodd;clip-rule:evenodd;fill:#FFFFFF;}
	.st2{fill-rule:evenodd;clip-rule:evenodd;}
</style>
<g id="circulo">
	<path class="st0" d="M1925.8,998.5c0,510.7-414,924.8-924.8,924.8c-510.7,0-924.7-414.1-924.7-924.8S490.3,73.8,1001,73.8
		C1511.9,73.7,1925.8,487.8,1925.8,998.5"/>
</g>
<g id="gal">
	<path id="l" class="st1" d="M1418.2,637.1h134.9v416c0,19.1-3,43.6,3.2,56c9.8,20,46.1,10.8,71.5,12.8v116.8
		c-36.2-1.1-70.1,2.4-99.3-2.1c-56.6-8.7-93.6-43.8-106.7-96.1c-6.7-26.7-4.2-60.9-4.2-97V638.6
		C1417.6,637.9,1417.6,637.2,1418.2,637.1"/>
	<path id="a" class="st1" d="M1326.5,1238.7h-132.8v-35.8c-2-0.9-3.8,2.8-5.9,4.9c-14.6,14-32.8,26.2-57.1,31.4
		c-28.5,6.3-62.5,4.2-89-4.2c-49.2-15.8-83-54-91.3-110.4c-10.1-68.9,18.6-116.5,59.2-139.8c21.7-12.5,49.2-19.6,80-20.8
		c31-1.2,65.4,0.9,100.7,0c1.3-30.1-3.7-50.1-22.4-60.3c-17.5-9.6-44.8-10.4-67.2-6.4c-22.8,4.1-38.1,17.5-49.1,28.2
		c-24.2-24.8-48.5-49.6-74.1-75.2c-2.1-2-10.2-9.8-10.2-10.6c-0.1-1.7,10.3-10.6,12.7-12.8c13-11.7,29.4-22.2,45.3-29.8
		c24.5-11.8,52.2-16.2,83.3-17.6c115.9-5.4,196.7,29.3,214.4,124.8c4.6,25.1,3.2,53.1,3.2,81.6v252.8H1326.5z M1114.2,1056.2
		c-23.3,2.5-38.3,19.9-35.2,42.2c6.2,43.9,84.8,40.1,104,8.6c7.7-12.5,7.4-28.2,7.5-50.7C1164.1,1058.2,1139.5,1053.7,1114.2,1056.2
		"/>
	<path id="g" class="st1" d="M742.9,820v-36.2h131.7V1172c0,22.7,1.2,43.9-1.5,63c-12.6,87.8-78.6,144-169,154.1
		c-87.2,9.8-157.8-13.7-198-57c24.2-26.3,48.7-49.6,73.6-76.3c2.8-3,9.8-10.6,10.7-10.7c1.3,0,11.5,10.2,13.8,11.8
		c14.9,10.2,33.1,16.8,58.1,17.1c59.8,0.4,82.4-34.2,76.8-100.9c-10.1,7.1-18.7,15.8-29.9,21.9c-34.4,19-93.1,18.4-130.6,2.1
		c-23.5-10.1-42.8-26.7-57.2-48.5c-27.6-42.2-24.5-116.6-24.5-186.3c0-35.2,2.2-67.9,11.2-94.4C525,818,570,782.4,631.8,778.8
		C686.1,775.8,718,795.1,742.9,820 M633,988.6c0,29.9,0.9,61.7,12.8,78.4c12.5,17.5,43,23.8,65.6,12.3c24-12.3,29.1-50,27.7-87.5
		c-1.8-48.7-6-91.3-57.1-87.5C638.4,907.5,633,942.8,633,988.6"/>
</g>
<g id="punto">
	<path class="st2" d="M221.8,1093.6h150.9c1.3,49.6,0.2,101.6,0.6,152.1h-152v-150.5C221.2,1094.5,221.2,1093.7,221.8,1093.6"/>
</g>
</svg>
