<?xml version="1.0" encoding="iso-8859-1"?>
<!-- Generator: Adobe Illustrator 16.0.0, SVG Export Plug-In . SVG Version: 6.00 Build 0)  -->
<!DOCTYPE svg PUBLIC "-//W3C//DTD SVG 1.1//EN" "http://www.w3.org/Graphics/SVG/1.1/DTD/svg11.dtd">
<svg version="1.1" id="Capa_1" xmlns="http://www.w3.org/2000/svg" xmlns:xlink="http://www.w3.org/1999/xlink" x="0px" y="0px"
	 width="94" height="94" viewBox="0 0 775.531 775.531" style="enable-background:new 0 0 775.531 775.531;"
	 xml:space="preserve">
<g>
	<path stroke="#000" stroke-linecap="round" stroke-linejoin="round" stroke-width="15"  fill="#3c89b8"  d="M112.122,230.47l40.419-24.258l-0.574,8.615l-29.06,21.337l16.834,0.417l203.635-4.081l166.125-117.869l110.242-85.935
		L270.555,11.674L0,233.096l73.83,1.833l1.656-13.905l23.585-10.056l4.643,2.441L84.522,225.24l-0.073,9.96
		c-0.007,0.011-14.604,113.832,8.157,159.634c0,0,35.133,7.818,58.688-19.357l-35.555-134.059L112.122,230.47z M299.328,98.903
		c20.977-6.917,41.403-2.149,45.619,10.656c4.229,12.797-9.355,28.793-30.338,35.71c-20.981,6.917-41.408,2.15-45.637-10.657
		C264.75,121.805,278.339,105.82,299.328,98.903z M117.321,371.115c0,0-8.37-37.036-10.319-77.733l17.23,75.451L117.321,371.115z"/>
	<path  stroke="#000" stroke-linecap="round" stroke-linejoin="round" stroke-width="15" fill="#3c89b8"  d="M547.795,230.336c-0.122-0.343-0.335-0.648-0.464-1.005l-30.997-93.984l-166.12,117.875l-203.649,4.059l18.465,55.993
		l12.881,39.048c7.223,21.886,34.339,34.939,72.351,38.347v285.948h227.197v58.062h-92.752v29.179h256.38v-29.179h-92.754v-58.062
		h227.198V309.767h-269.78C538.636,282.772,555.542,253.847,547.795,230.336z M728.567,362.352v261.689h-431.33V390.398
		c28.369-2.479,59.727-8.91,91.849-19.502c8.042-2.649,15.814-5.537,23.438-8.545H728.567L728.567,362.352z"/>
	<rect x="341.862" y="426.182" width="327.647" height="12.515"/>
	<rect x="341.862" y="478.984" width="327.647" height="12.518"/>
	<rect x="341.862" y="537.352" width="284.138" height="12.516"/>
</g>
</svg>
