 <svg  version="1.0" xmlns="http://www.w3.org/2000/svg"  width="94" height="94" viewBox="0 0 300.000000 300.000000"  preserveAspectRatio="xMidYMid meet">  <g transform="translate(0.000000,300.000000) scale(0.100000,-0.100000)" fill="#0f4899" stroke="none"> <path d="M1340 2970 c-333 -42 -641 -191 -874 -424 -211 -211 -346 -463 -412 -766 -27 -121 -27 -449 0 -570 42 -194 111 -362 212 -517 214 -329 523 -544 924 -644 86 -21 117 -24 320 -24 212 0 231 2 333 28 514 130 903 485 1071 977 55 163 70 267 70 475 0 147 -4 199 -22 282 -40 186 -112 364 -205 505 -227 349 -560 576 -964 658 -119 24 -341 33 -453 20z m431 -54 c498 -91 928 -458 1097 -937 61 -173 77 -274 77 -484 0 -161 -3 -205 -23 -292 -32 -143 -56 -212 -116 -338 -197 -410 -597 -711 -1051 -791 -142 -25 -377 -23 -511 4 -466 94 -838 382 -1039 805 -95 200 -135 381 -135 610 0 249 47 453 152 661 91 181 255 372 433 506 94 70 305 178 421 214 75 23 198 49 284 60 70 8 327 -3 411 -18z"/> <path d="M1900 2343 c-36 -3 -203 -21 -255 -29 -28 -4 -117 -14 -260 -29 -102 -12 -319 -53 -391 -75 -317 -98 -453 -204 -503 -397 -13 -46 -10 -88 13 -218 9 -49 25 -164 36 -255 39 -320 61 -406 123 -495 99 -141 253 -185 462 -135 176 43 439 92 555 104 200 21 227 24 350 31 123 8 189 20 248 46 57 26 178 142 207 199 33 65 48 175 41 289 -3 53 -8 141 -11 196 -16 298 -34 406 -86 523 -27 61 -77 134 -109 159 -26 21 -118 62 -162 73 -43 10 -193 17 -258 13z m269 -88 c91 -38 126 -68 168 -142 72 -130 89 -218 110 -578 19 -319 4 -394 -101 -503 -96 -100 -160 -123 -381 -138 -60 -4 -114 -8 -120 -9 -5 0 -44 -4 -85 -8 -96 -10 -272 -35 -330 -47 -25 -5 -119 -26 -210 -46 -196 -43 -269 -43 -365 0 -92 42 -144 103 -182 218 -29 86 -60 263 -78 448 -4 36 -13 95 -20 131 -22 105 -25 161 -11 221 29 127 127 230 278 295 182 79 363 117 773 163 55 6 127 15 160 19 33 5 121 7 195 6 122 -2 141 -5 199 -30z m317 -1052 c-11 -11 -17 4 -9 23 7 18 8 18 11 1 2 -10 1 -21 -2 -24z m-6 -40 c0 -5 -5 -15 -10 -23 -8 -12 -10 -11 -10 8 0 12 5 22 10 22 6 0 10 -3 10 -7z m-20 -49 c0 -3 -5 -14 -10 -25 -16 -28 -32 -23 -18 6 10 22 28 35 28 19z m-47 -71 c-7 -3 -13 -9 -13 -14 0 -15 -39 -53 -46 -46 -4 3 8 22 27 41 18 20 35 33 38 29 3 -3 0 -8 -6 -10z m-1759 -71 c4 -7 4 -12 -1 -12 -13 0 -32 50 -25 68 4 13 8 9 12 -14 4 -17 10 -36 14 -42z m19 -54 c2 -8 8 -21 15 -29 37 -42 52 -63 52 -69 0 -4 16 -15 35 -26 19 -10 35 -23 35 -27 0 -5 9 -7 20 -4 23 6 37 -8 15 -16 -29 -12 -103 43 -150 109 -25 36 -45 72 -45 81 0 20 20 4 23 -19z"/> <path d="M1695 2205 c-11 -2 -81 -11 -155 -20 -74 -9 -187 -28 -250 -42 -63 -14 -155 -34 -205 -44 -125 -27 -169 -43 -259 -94 -116 -66 -161 -106 -195 -178 -35 -71 -48 -117 -33 -117 5 0 15 20 21 45 6 25 15 45 20 45 5 0 11 10 15 23 10 37 91 111 183 165 52 31 169 74 228 86 17 3 84 17 150 31 282 61 465 83 660 80 114 -2 138 -5 200 -29 38 -15 72 -30 75 -34 3 -4 30 -24 60 -44 30 -21 77 -60 104 -88 54 -57 73 -60 32 -5 -38 50 -71 79 -146 129 -111 74 -162 88 -335 92 -82 1 -159 1 -170 -1z"/> <path d="M1055 1995 c-14 -13 -25 -34 -25 -47 0 -13 16 -129 35 -258 19 -129 46 -316 60 -415 14 -99 31 -193 37 -209 13 -33 63 -58 99 -49 34 9 360 214 373 235 15 24 -10 293 -31 325 -23 34 -55 38 -171 19 -81 -13 -110 -22 -124 -38 -24 -28 -23 -61 5 -93 22 -26 23 -26 90 -15 37 6 72 8 76 5 5 -3 8 -35 7 -71 l-1 -66 -94 -59 c-92 -59 -111 -67 -111 -50 0 8 -88 599 -92 623 -4 17 6 15 154 -39 137 -50 166 -51 194 -8 16 24 14 55 -4 82 -11 17 -389 153 -425 153 -16 0 -38 -10 -52 -25z m107 -17 c27 -8 35 -14 26 -20 -9 -6 -6 -7 8 -4 22 7 264 -78 248 -86 -5 -3 -3 -3 4 -1 52 13 92 -42 56 -77 -18 -18 -24 -16 -183 42 -183 67 -192 67 -182 -9 l5 -38 7 30 c4 17 7 25 8 18 0 -6 21 -150 46 -320 26 -172 43 -322 40 -340 -3 -18 -2 -33 2 -33 22 1 278 168 276 181 -1 8 -4 49 -8 93 l-7 78 -51 -6 c-29 -4 -69 -10 -89 -13 -34 -5 -38 -3 -44 21 -11 43 0 54 63 61 32 4 83 13 113 20 81 20 86 12 101 -157 6 -75 9 -143 7 -150 -3 -7 -84 -62 -181 -121 -186 -114 -211 -122 -235 -74 -10 20 -132 827 -132 873 0 43 32 53 102 32z"/> <path d="M1593 1325 c0 -22 2 -30 4 -17 2 12 2 30 0 40 -3 9 -5 -1 -4 -23z"/> <path d="M1577 1812 c-22 -24 -22 -66 0 -87 9 -10 42 -28 74 -42 l57 -25 6 -81 c17 -212 25 -239 79 -239 50 0 82 33 79 82 0 3 -3 47 -7 97 l-8 93 77 -27 c71 -26 78 -27 104 -13 20 12 28 25 30 51 2 21 -2 40 -10 46 -20 17 -418 163 -443 163 -12 0 -29 -8 -38 -18z m78 -18 c13 -6 14 -9 3 -16 -9 -7 -8 -8 6 -4 25 9 88 -12 80 -26 -4 -6 -3 -8 3 -5 14 9 83 -14 76 -26 -3 -6 -1 -7 6 -3 16 10 83 -13 75 -26 -4 -7 -2 -8 5 -4 14 9 83 -13 76 -24 -3 -4 3 -6 12 -4 10 3 27 -2 38 -10 16 -12 18 -18 9 -33 -17 -27 -42 -26 -127 6 -44 16 -85 27 -93 24 -9 -3 -13 -19 -13 -47 2 -36 3 -37 7 -11 4 20 10 -6 17 -75 12 -112 8 -135 -26 -145 -39 -13 -48 12 -61 167 l-12 147 -65 26 c-76 30 -95 49 -80 76 10 19 34 24 64 13z"/> <path d="M341 2294 c22 -26 336 -176 361 -172 16 3 -33 31 -165 96 -104 51 -194 92 -199 92 -6 0 -5 -7 3 -16z"/> <path d="M150 1903 c0 -5 60 -38 133 -73 72 -35 144 -69 159 -77 24 -12 27 -11 22 2 -4 8 -13 15 -20 15 -8 0 -17 7 -20 15 -4 8 -11 15 -18 15 -6 0 -22 9 -36 20 -14 11 -33 20 -42 20 -10 0 -40 13 -66 30 -51 31 -112 49 -112 33z"/> <path d="M2540 1231 c0 -5 17 -20 38 -32 20 -13 39 -26 42 -29 3 -3 21 -12 40 -20 19 -7 40 -20 47 -28 6 -7 16 -11 21 -8 5 3 30 -6 56 -20 25 -14 56 -24 68 -22 17 3 -18 25 -129 80 -174 87 -183 90 -183 79z"/> <path d="M2275 861 c17 -16 389 -191 394 -185 10 10 -31 34 -184 109 -134 65 -237 102 -210 76z"/> </g> </svg> 