 <svg  version="1.0" xmlns="http://www.w3.org/2000/svg"  width="94" height="94" viewBox="0 0 300.000000 315.000000"  preserveAspectRatio="xMidYMid meet">  <g transform="translate(0.000000,315.000000) scale(0.050000,-0.050000)" fill="#0f4899" stroke="none"> <path d="M431 6201 c-7 -10 -29 -71 -50 -135 -20 -64 -106 -295 -189 -514 l-152 -398 0 -2137 0 -2137 730 0 730 0 0 -400 0 -400 405 0 405 0 400 400 400 400 600 -1 600 0 795 805 796 806 -2 1865 -2 1865 -2727 0 c-1684 0 -2732 -7 -2739 -19z m5399 -186 c-8 -25 -19 -115 -24 -200 -6 -85 -16 -155 -24 -155 -26 0 -21 -96 7 -119 16 -14 23 -39 16 -57 -11 -28 -16 -25 -27 16 -9 32 -15 -3 -16 -95 -1 -104 5 -144 22 -140 40 8 37 -262 -3 -285 -27 -15 -27 -19 4 -31 40 -15 48 -69 10 -69 -17 -1 -15 -7 5 -20 25 -17 26 -23 2 -38 -15 -10 -21 -28 -13 -40 7 -12 6 -22 -4 -22 -9 0 -17 -22 -17 -49 0 -39 6 -45 27 -27 21 18 26 16 21 -6 -3 -15 -19 -34 -36 -42 -24 -10 -23 -13 6 -15 33 -1 34 -4 6 -32 -26 -26 -31 -115 -31 -605 0 -1605 3 -1493 -41 -1544 -22 -25 -40 -40 -40 -34 0 7 -30 -16 -66 -52 -37 -35 -64 -68 -60 -72 9 -13 -82 -72 -100 -66 -10 3 -11 -4 -5 -15 7 -11 -12 -40 -41 -65 -30 -25 -85 -80 -124 -120 -38 -41 -77 -71 -85 -65 -9 5 -21 -7 -28 -28 -6 -20 -34 -49 -61 -63 -28 -15 -50 -35 -50 -44 0 -23 -178 -196 -202 -196 -10 0 -18 -9 -18 -21 0 -28 -174 -199 -203 -199 -13 0 -19 -5 -12 -11 18 -19 -189 -209 -213 -195 -12 7 -16 5 -8 -4 20 -22 -60 -130 -97 -130 -16 0 -23 -10 -16 -21 7 -12 1 -20 -14 -18 -62 9 -118 -2 -107 -21 15 -25 53 -23 -530 -28 -269 -2 -505 -11 -523 -20 -19 -8 -46 -17 -60 -20 -15 -2 -46 -14 -69 -27 -24 -13 -50 -17 -59 -9 -8 8 -10 4 -3 -7 15 -28 -323 -369 -365 -369 -12 0 -21 -10 -21 -21 0 -12 -9 -16 -20 -9 -12 7 -19 1 -15 -14 3 -14 -6 -24 -19 -21 -14 3 -20 -8 -13 -25 6 -17 1 -30 -11 -30 -12 0 -22 -8 -22 -17 0 -36 -187 -205 -201 -181 -11 17 -16 17 -22 -1 -5 -15 -73 -26 -187 -31 -99 -4 -216 -16 -259 -27 -112 -29 -111 -31 -111 298 l0 299 -60 0 c-59 0 -79 26 -40 50 41 25 18 85 -59 155 l-80 71 -525 1 c-318 1 -510 -6 -486 -17 36 -16 35 -17 -13 -19 -28 0 -85 -15 -125 -31 l-72 -31 0 2043 0 2043 172 463 c95 254 182 491 193 527 l22 65 2629 0 2629 0 -15 -45z"/> <path d="M2710 5823 c-64 -6 -72 -11 -40 -24 34 -14 33 -16 -14 -13 -29 1 -49 10 -43 18 5 9 -61 15 -147 13 -138 -3 -145 -5 -66 -17 l90 -14 -106 -3 c-67 -2 -102 4 -94 17 7 11 4 20 -7 20 -11 0 -25 -11 -31 -25 -10 -20 -14 -20 -24 0 -8 19 -99 25 -351 25 -187 0 -335 -7 -330 -16 6 -9 -18 -17 -53 -18 -60 -3 -61 -2 -14 14 32 10 -46 17 -210 18 -175 1 -250 -5 -230 -18 24 -15 19 -19 -21 -20 -70 0 -158 -105 -167 -200 -4 -42 -14 -87 -23 -101 -9 -15 -7 -20 4 -13 13 7 18 -99 14 -292 -3 -167 -7 -450 -10 -628 -2 -178 -11 -320 -20 -314 -10 6 -17 1 -17 -11 0 -11 10 -21 22 -21 15 0 13 -12 -5 -34 -18 -23 -19 -29 -2 -19 15 10 25 4 25 -14 0 -16 -11 -34 -25 -40 -20 -8 -20 -10 0 -11 14 -1 25 -24 25 -52 0 -27 -11 -50 -25 -50 -17 -1 -18 -6 -4 -15 33 -23 37 -207 6 -227 -20 -13 -21 -17 -2 -18 14 0 25 -16 25 -35 -1 -30 -3 -31 -20 -5 -11 17 -20 21 -20 9 0 -12 10 -31 23 -44 18 -18 16 -32 -5 -57 -22 -27 -22 -36 -3 -43 30 -10 34 -85 5 -85 -11 0 -20 -10 -20 -21 0 -12 8 -16 18 -10 10 6 19 -29 19 -79 0 -49 -9 -90 -19 -90 -10 0 -18 -10 -18 -21 0 -12 7 -17 15 -12 8 5 15 -291 15 -659 0 -367 6 -668 13 -668 24 0 32 -77 10 -102 -19 -21 -17 -21 9 -2 26 19 40 14 77 -25 44 -47 50 -48 114 -21 l67 28 0 -69 0 -68 295 11 c162 7 388 6 502 -2 l207 -14 -12 -53 c-18 -77 -28 -113 -32 -113 -14 0 -11 -129 3 -166 10 -27 9 -42 -1 -35 -9 6 -22 -13 -27 -41 -6 -32 0 -55 17 -62 16 -6 28 -22 28 -37 0 -35 43 -129 59 -129 7 0 14 185 15 411 l2 412 -598 -5 -599 -4 -4 1933 -5 1933 2195 0 2195 0 0 -1465 0 -1465 -464 -465 -464 -465 -732 0 -732 0 -384 -387 c-211 -213 -384 -393 -384 -400 0 -31 35 -9 60 36 39 74 60 43 60 -90 0 -66 3 -119 6 -119 4 0 185 180 404 399 l397 400 727 -4 727 -3 470 469 469 469 0 1474 0 1473 -55 7 c-37 4 -53 16 -47 36 26 102 26 120 -4 120 -17 0 -37 18 -44 40 -7 22 -26 40 -41 40 -16 0 -29 9 -29 20 0 11 -16 20 -35 20 -30 -1 -31 -3 -5 -20 26 -17 25 -19 -5 -20 -19 0 -35 9 -35 20 0 13 -408 20 -1170 19 -745 0 -1170 -7 -1170 -20 0 -10 -16 -19 -35 -19 -27 1 -29 5 -8 18 36 23 -22 34 -127 25z m-845 -37 c-36 -5 -94 -5 -130 0 -36 4 -6 8 65 8 72 0 101 -4 65 -8z"/> <path d="M2440 3822 l0 -799 255 -7 c140 -4 263 -1 272 6 9 8 14 368 10 801 l-7 787 -265 6 -265 5 0 -799z m480 617 c0 -12 -15 -50 -34 -85 -29 -55 -34 -139 -38 -574 -4 -612 -12 -658 -113 -661 -14 0 -42 -13 -63 -29 -68 -52 -72 -15 -72 681 l0 689 160 0 c98 0 160 -8 160 -21z"/> <path d="M3900 3820 l0 -800 210 -4 c116 -2 233 -4 261 -5 l50 -1 5 805 4 805 -265 0 -265 0 0 -800z m467 625 c5 -9 -11 -58 -35 -110 -25 -51 -36 -88 -24 -81 12 6 11 0 -3 -15 -14 -15 -25 -41 -25 -58 1 -25 4 -26 18 -4 12 19 17 11 17 -27 0 -38 -5 -46 -17 -27 -12 19 -17 10 -18 -29 0 -40 7 -52 25 -41 15 8 12 -1 -5 -23 -17 -22 -20 -31 -5 -23 14 9 25 6 25 -5 0 -11 -9 -25 -20 -32 -11 -7 -20 -21 -20 -32 0 -11 9 -15 20 -8 29 18 25 -157 -4 -186 -19 -19 -19 -24 0 -24 13 0 24 -16 24 -35 -1 -30 -3 -31 -20 -5 -15 23 -19 18 -20 -24 0 -29 9 -59 20 -66 11 -7 20 -21 20 -32 0 -11 -9 -15 -20 -8 -11 7 -20 3 -20 -9 0 -11 11 -21 25 -21 17 -1 15 -7 -5 -20 -27 -17 -27 -19 0 -20 21 0 23 -5 6 -16 -16 -10 -18 -25 -5 -45 10 -16 18 -42 18 -59 0 -27 -2 -27 -19 0 -11 17 -20 21 -20 9 0 -12 11 -32 24 -45 16 -16 16 -24 3 -24 -12 0 -22 -23 -22 -51 0 -79 -153 -207 -210 -175 -8 5 -15 318 -15 697 l0 689 149 0 c82 0 153 -7 158 -15z"/> <path d="M3080 605 c-313 -157 -172 -545 198 -545 l142 0 3 130 c2 72 4 144 5 162 2 24 -23 33 -107 39 -121 8 -161 -13 -161 -82 0 -61 39 -84 70 -42 39 53 150 44 150 -12 -1 -81 -24 -135 -57 -133 -21 1 -24 5 -8 11 70 28 21 67 -84 67 -113 0 -189 54 -192 138 -1 24 -6 22 -19 -8 -16 -36 -17 -35 -19 12 -1 41 95 178 124 178 3 0 34 8 69 18 50 15 61 13 53 -8 -16 -43 66 -56 123 -18 123 81 -144 166 -290 93z"/> <path d="M4950 612 c-105 -47 -156 -120 -166 -241 -17 -208 100 -311 354 -311 l142 0 0 90 c0 92 -35 124 -54 50 -8 -30 -17 -35 -36 -20 -14 12 -51 20 -83 18 -120 -7 -205 60 -209 166 -1 38 -6 33 -28 -24 -27 -70 -27 -70 -28 -13 -2 71 72 180 111 164 19 -7 24 -2 15 13 -10 15 -3 19 20 10 20 -8 29 -6 22 6 -7 11 6 20 29 20 61 0 71 -3 67 -18 -2 -8 12 -24 31 -36 45 -27 157 58 117 89 -78 61 -212 77 -304 37z"/> <path d="M3618 565 c-38 -96 -158 -467 -158 -486 0 -11 32 -19 70 -19 50 0 70 9 70 31 0 25 20 30 95 25 63 -4 93 -14 90 -31 -3 -17 22 -25 75 -25 44 0 80 3 80 6 0 3 -36 112 -79 242 -44 130 -79 242 -78 249 11 87 -132 94 -165 8z m118 -171 c-3 -130 -25 -194 -66 -194 -8 0 -30 -20 -50 -45 -66 -81 -65 -21 1 179 94 285 120 298 115 60z"/> <path d="M3981 340 l3 -280 168 0 c121 0 168 7 168 25 0 14 6 47 13 73 13 48 12 48 -101 36 l-114 -11 6 218 6 219 -76 0 -75 0 2 -280z m121 -177 c4 -16 -3 -32 -17 -37 -19 -7 -24 37 -22 187 l3 197 14 -160 c7 -88 17 -172 22 -187z"/> <path d="M4367 575 c7 -25 13 -151 13 -280 l0 -235 190 0 190 0 0 71 0 71 -105 -6 c-86 -5 -104 -12 -102 -41 2 -26 -12 -35 -55 -35 l-58 0 0 220 0 220 114 0 c113 0 129 -27 26 -46 -27 -5 -4 -10 53 -11 102 -3 125 16 127 102 0 8 -91 15 -202 15 -200 0 -203 -1 -191 -45z"/> <path d="M5445 580 c-249 -152 -143 -520 150 -520 145 0 340 208 295 314 -9 20 -18 46 -21 58 -33 155 -275 239 -424 148z m52 -89 c-77 -52 -97 -86 -97 -161 0 -26 -9 -53 -20 -60 -11 -7 -20 6 -20 29 0 76 55 176 113 207 90 47 103 39 24 -15z m164 -25 c143 -98 52 -296 -117 -254 -130 32 -143 204 -18 258 81 36 76 36 135 -4z"/> <path d="M4573 407 c-7 -8 -13 -30 -13 -50 0 -20 -10 -37 -21 -37 -12 0 -16 -9 -9 -20 37 -60 170 -21 170 50 0 68 -79 104 -127 57z"/> <path d="M5032 385 c-19 -18 -14 -121 6 -134 9 -6 29 3 42 19 15 18 59 30 112 30 78 0 88 5 88 45 0 44 -210 78 -248 40z"/> </g> </svg> 