 <svg  version="1.0" xmlns="http://www.w3.org/2000/svg"  width="94" height="94" viewBox="0 0 318.000000 318.000000"  preserveAspectRatio="xMidYMid meet">  <g transform="translate(0.000000,318.000000) scale(0.100000,-0.100000)" fill="#0f4899" stroke="none"> <path d="M1395 3040 c-22 -5 -68 -13 -102 -18 -34 -6 -77 -15 -95 -21 -143 -46 -196 -65 -258 -93 -26 -12 -187 -106 -205 -120 -159 -121 -242 -204 -363 -363 -16 -21 -109 -182 -124 -215 -50 -109 -102 -263 -112 -335 -3 -22 -10 -60 -15 -85 -13 -58 -13 -362 0 -420 5 -25 12 -63 15 -85 10 -72 62 -226 112 -335 15 -33 108 -194 124 -215 121 -159 207 -245 363 -363 39 -30 177 -107 237 -132 65 -28 105 -42 226 -81 19 -6 57 -15 85 -19 29 -5 83 -14 122 -20 80 -14 335 -9 405 8 25 6 68 16 95 22 91 20 130 31 140 41 5 5 18 9 28 9 10 0 31 6 45 14 15 7 71 35 125 62 54 27 106 54 115 61 10 7 55 40 101 74 209 152 374 370 483 639 33 79 74 237 84 320 11 84 11 336 0 420 -10 83 -51 241 -84 320 -109 269 -274 487 -483 639 -46 34 -93 68 -103 76 -11 8 -62 35 -115 61 -53 26 -104 50 -113 55 -15 8 -60 23 -176 60 -18 6 -59 15 -90 20 -31 5 -79 13 -107 18 -60 12 -303 12 -360 1z m430 -130 c139 -29 162 -36 285 -87 54 -23 153 -74 171 -89 8 -8 19 -14 23 -14 14 0 143 -103 210 -168 37 -37 89 -94 114 -127 25 -33 49 -62 52 -65 11 -9 95 -154 118 -205 13 -27 27 -58 33 -67 5 -10 9 -23 9 -29 0 -6 6 -25 14 -42 20 -45 36 -111 47 -187 5 -36 13 -87 19 -113 32 -152 -12 -453 -97 -657 -30 -73 -125 -245 -143 -260 -3 -3 -27 -32 -52 -65 -77 -101 -292 -295 -326 -295 -5 0 -14 -6 -20 -13 -10 -12 -108 -63 -172 -90 -113 -46 -164 -62 -300 -91 -101 -22 -365 -22 -475 0 -182 35 -366 110 -520 212 -142 94 -344 318 -426 472 -13 25 -27 46 -31 48 -5 2 -8 10 -8 19 0 8 -6 27 -14 41 -13 25 -25 56 -56 142 -6 19 -16 57 -21 84 -4 26 -13 64 -20 84 -20 59 -16 401 5 492 30 127 61 223 92 282 8 14 14 33 14 41 0 9 3 17 8 19 4 2 18 23 31 48 82 155 284 378 429 474 93 61 228 128 317 156 39 12 78 26 87 31 10 5 30 9 45 10 16 0 48 6 73 13 76 22 377 20 485 -4z"/> <path d="M1531 2676 c-8 -9 -11 -108 -9 -341 l3 -328 28 -10 c21 -7 34 -5 52 7 l25 16 0 325 c0 310 -1 325 -19 335 -27 14 -66 13 -80 -4z"/> <path d="M1370 2593 c-8 -3 -18 -11 -22 -17 -4 -6 -8 -122 -8 -257 0 -226 2 -247 18 -262 25 -23 55 -21 78 4 18 20 19 39 19 259 0 220 -1 240 -19 259 -19 21 -37 25 -66 14z"/> <path d="M1716 2584 c-14 -13 -16 -56 -16 -318 0 -323 0 -326 50 -326 58 0 60 9 60 324 0 247 -2 290 -16 311 -19 29 -55 33 -78 9z"/> <path d="M1190 2443 c-27 -11 -30 -26 -30 -170 0 -130 2 -145 20 -163 27 -27 55 -25 79 6 19 24 21 40 21 154 0 114 -2 130 -21 154 -20 25 -38 30 -69 19z"/> <path d="M1892 2438 c-14 -14 -17 -514 -4 -535 4 -6 19 -14 33 -18 20 -5 32 -1 48 16 20 22 21 32 21 261 0 203 -2 242 -16 263 -18 27 -61 34 -82 13z"/> <path d="M1181 1953 c-21 -18 -22 -24 -19 -233 l3 -214 24 -12 c31 -16 77 0 85 29 3 12 6 106 6 208 0 173 -1 188 -21 213 -24 30 -48 33 -78 9z"/> <path d="M1352 1898 c-14 -14 -18 -484 -4 -505 4 -7 22 -15 39 -19 25 -5 34 -1 52 21 20 26 21 38 21 244 0 246 -4 264 -60 269 -19 2 -41 -3 -48 -10z"/> <path d="M1543 1853 c-23 -15 -23 -17 -23 -282 0 -194 3 -270 12 -279 15 -15 53 -16 79 -2 18 10 19 24 19 278 l0 268 -29 17 c-34 20 -30 20 -58 0z"/> <path d="M1740 1813 c-36 -12 -40 -33 -40 -224 0 -203 4 -219 55 -219 48 0 55 28 55 226 0 160 -2 183 -17 196 -26 22 -36 26 -53 21z"/> <path d="M1892 1748 c-9 -9 -12 -83 -12 -271 0 -278 -7 -332 -55 -407 -68 -105 -186 -156 -307 -131 -146 30 -234 138 -240 297 -2 63 -7 87 -22 103 -23 25 -39 26 -71 5 -23 -15 -25 -22 -25 -103 0 -86 22 -177 49 -204 6 -6 11 -16 11 -23 0 -21 105 -123 153 -149 76 -40 189 -59 262 -45 148 29 242 97 312 228 35 65 43 141 43 406 0 220 -2 265 -16 284 -17 24 -62 30 -82 10z"/> <path d="M1536 737 c-12 -9 -17 -23 -14 -47 2 -26 9 -35 31 -43 37 -12 77 13 77 50 0 45 -55 69 -94 40z"/> <path d="M1332 560 c-26 -24 -28 -52 -6 -74 13 -14 50 -16 249 -16 221 0 235 1 245 19 15 29 12 56 -8 74 -16 15 -48 17 -238 17 -208 0 -221 -1 -242 -20z"/> </g> </svg> 