<?xml version="1.0" ?><svg id="Capa_1" style="enable-background:new 0 0 150 150;" version="1.1" viewBox="0 0 150 150" xml:space="preserve" xmlns="http://www.w3.org/2000/svg" xmlns:xlink="http://www.w3.org/1999/xlink"><style type="text/css">
	.st0{fill:#1A73E8;}
	.st1{fill:#EA4335;}
	.st2{fill:#4285F4;}
	.st3{fill:#FBBC04;}
	.st4{fill:#34A853;}
	.st5{fill:#4CAF50;}
	.st6{fill:#1E88E5;}
	.st7{fill:#E53935;}
	.st8{fill:#C62828;}
	.st9{fill:#FBC02D;}
	.st10{fill:#1565C0;}
	.st11{fill:#2E7D32;}
	.st12{fill:#F6B704;}
	.st13{fill:#E54335;}
	.st14{fill:#4280EF;}
	.st15{fill:#34A353;}
	.st16{clip-path:url(#SVGID_2_);}
	.st17{fill:#188038;}
	.st18{opacity:0.2;fill:#FFFFFF;enable-background:new    ;}
	.st19{opacity:0.3;fill:#0D652D;enable-background:new    ;}
	.st20{clip-path:url(#SVGID_4_);}
	.st21{opacity:0.3;fill:url(#_45_shadow_1_);enable-background:new    ;}
	.st22{clip-path:url(#SVGID_6_);}
	.st23{fill:#FA7B17;}
	.st24{opacity:0.3;fill:#174EA6;enable-background:new    ;}
	.st25{opacity:0.3;fill:#A50E0E;enable-background:new    ;}
	.st26{opacity:0.3;fill:#E37400;enable-background:new    ;}
	.st27{fill:url(#Finish_mask_1_);}
	.st28{fill:#FFFFFF;}
	.st29{fill:#0C9D58;}
	.st30{opacity:0.2;fill:#004D40;enable-background:new    ;}
	.st31{opacity:0.2;fill:#3E2723;enable-background:new    ;}
	.st32{fill:#FFC107;}
	.st33{opacity:0.2;fill:#1A237E;enable-background:new    ;}
	.st34{opacity:0.2;}
	.st35{fill:#1A237E;}
	.st36{fill:url(#SVGID_7_);}
	.st37{fill:#FBBC05;}
	.st38{clip-path:url(#SVGID_9_);fill:#E53935;}
	.st39{clip-path:url(#SVGID_11_);fill:#FBC02D;}
	.st40{clip-path:url(#SVGID_13_);fill:#E53935;}
	.st41{clip-path:url(#SVGID_15_);fill:#FBC02D;}
</style><g><path class="st3" d="M69,75c0-5.8,0-11.6,0-17.3c0-3.3,2.1-5.6,5.3-6c3.1-0.4,6.3,2.1,6.5,5.2c0,0.3,0,0.6,0,0.9   c0,11.5,0,23,0,34.5c0,3.2-2,5.6-5,6.1c-3.5,0.6-6.8-2.1-6.9-5.7c-0.1-4.8,0-9.7,0-14.5C69,77.1,69,76.1,69,75z"/><path class="st4" d="M90.3,87.3c0-3.6,0-7.1,0-10.7c0-3,2.3-5.5,5.1-5.8c3.2-0.4,5.9,1.5,6.6,4.5c0.1,0.4,0.2,0.9,0.2,1.3   c0,7.2,0,14.4,0,21.5c0,3-2.3,5.5-5.2,5.8c-3.2,0.3-5.9-1.5-6.6-4.5c-0.1-0.6-0.2-1.2-0.2-1.8C90.3,94.1,90.3,90.7,90.3,87.3   C90.3,87.3,90.3,87.3,90.3,87.3z"/><path class="st7" d="M59.7,62.8c0,3.6,0,7.1,0,10.7c0,3-2.3,5.5-5.2,5.8c-3.1,0.3-5.9-1.5-6.6-4.5c-0.1-0.5-0.2-0.9-0.2-1.4   c0-7.1,0-14.1,0-21.2c0-4.3,4.3-7.2,8.2-5.5c2.3,1,3.7,2.8,3.7,5.4C59.8,55.6,59.7,59.2,59.7,62.8z"/><path class="st0" d="M39,75c0,1.4,0.2,2.8,0,4.2c-0.4,3.1-3.1,5.2-6.4,5.1c-3-0.2-5.4-2.6-5.5-5.8c-0.1-2.3-0.1-4.6,0-6.9   c0.2-3.4,2.9-5.9,6.3-5.7c3.2,0.1,5.7,2.8,5.7,6.1C39.1,72.9,39.1,73.9,39,75C39,75,39,75,39,75z"/><path class="st2" d="M110.9,75c0-1.1,0-2.1,0-3.2c0-3.4,2.6-6,5.8-6.1c3.4-0.1,6.1,2.5,6.2,5.9c0.1,2.2,0.1,4.5,0,6.7   c-0.1,3.4-2.8,5.9-6.2,5.8c-3.2-0.1-5.7-2.7-5.8-6C110.9,77.1,110.9,76.1,110.9,75z"/><path class="st4" d="M102.2,55.5c0,1.1,0,2.2,0,3.4c-0.1,3.3-2.7,5.8-6,5.8c-3.2,0-5.8-2.5-5.9-5.8c-0.1-2.3-0.1-4.6,0-6.9   c0.1-3.3,2.7-5.7,5.9-5.8c3.3,0,5.9,2.5,6,5.7C102.2,53.1,102.2,54.3,102.2,55.5C102.2,55.5,102.2,55.5,102.2,55.5z"/><path class="st7" d="M59.7,94.5c0,1.2,0,2.3,0,3.5c-0.1,3.3-2.7,5.8-5.9,5.9c-3.3,0-5.9-2.5-6-5.8c0-2.3,0-4.6,0-6.8   c0.1-3.3,2.7-5.8,6-5.8c3.2,0,5.8,2.5,5.9,5.8C59.8,92.3,59.7,93.4,59.7,94.5z"/><path class="st3" d="M81,36.3c0,1.1,0,2.2,0,3.4c-0.1,3.3-2.7,5.9-5.9,5.9c-3.2,0-5.9-2.6-6-5.8c0-2.3,0-4.6,0-6.8   c0.1-3.3,2.8-5.9,6-5.9c3.2,0,5.8,2.6,5.9,5.8C81,34,81,35.2,81,36.3z"/><path class="st3" d="M69,113.6c0-1.1,0-2.2,0-3.3c0.1-3.4,2.7-6,6-5.9c3.2,0,5.9,2.6,5.9,5.9c0,2.2,0,4.5,0,6.7   c-0.1,3.3-2.7,5.9-5.9,5.9c-3.2,0-5.9-2.6-6-6C69,115.9,69,114.7,69,113.6z"/></g></svg>